<?xml version="1.0" standalone="no"?><!DOCTYPE svg PUBLIC "-//W3C//DTD SVG 1.1//EN" "http://www.w3.org/Graphics/SVG/1.1/DTD/svg11.dtd"><svg t="1595334579967" class="icon" viewBox="0 0 1024 1024" version="1.1" xmlns="http://www.w3.org/2000/svg" p-id="1517" xmlns:xlink="http://www.w3.org/1999/xlink" width="200" height="200"><defs><style type="text/css"></style></defs><path d="M895.44035 393.993754A31.340412 31.340412 0 0 0 895.44035 383.76015 383.76015 383.76015 0 0 0 127.92005 383.76015a31.340412 31.340412 0 0 0 0 10.233604 167.575265 167.575265 0 0 0-127.92005 159.900062V575.640225a168.854466 168.854466 0 0 0 140.712055 163.098064A351.140537 351.140537 0 0 0 401.029357 959.400375h5.756402a95.940037 95.940037 0 1 0 0-63.960025 287.180512 287.180512 0 0 1-195.717677-156.062461h35.817614A40.294816 40.294816 0 0 0 287.820112 703.560275V427.252967a40.294816 40.294816 0 0 0-40.934416-39.015615H191.880075A30.061212 30.061212 0 0 0 191.880075 383.76015a319.800125 319.800125 0 0 1 639.60025 0 30.061212 30.061212 0 0 0 0 3.837601h-55.005622a40.294816 40.294816 0 0 0-40.934416 39.015616V703.560275a40.294816 40.294816 0 0 0 40.934416 39.015615h72.274829A170.773267 170.773267 0 0 0 1023.3604 575.640225v-21.746409a167.575265 167.575265 0 0 0-127.92005-159.900062zM496.329794 895.44035a31.980012 31.980012 0 1 1-31.980013 31.980012 31.980012 31.980012 0 0 1 31.980013-31.980012zM223.860087 675.417864h-49.249219A106.813242 106.813242 0 0 1 63.960025 575.640225v-21.746409a106.813242 106.813242 0 0 1 110.650843-102.33604h49.249219zM959.400375 575.640225a106.813242 106.813242 0 0 1-110.650843 102.33604h-49.24922V451.557776h49.24922A106.813242 106.813242 0 0 1 959.400375 553.893816z" p-id="1518"></path><path d="M650.473454 145.828857l-23.665209-8.314803a31.980012 31.980012 0 0 0-19.827608 63.960025l18.548407 7.035602a31.980012 31.980012 0 1 0 24.94441-58.843223zM305.089319 221.301686A31.980012 31.980012 0 0 0 358.17614 255.8401 202.113679 202.113679 0 0 1 511.6802 179.08807a31.980012 31.980012 0 0 0 0-63.960025 263.515303 263.515303 0 0 0-206.590881 106.173641z" p-id="1519"></path></svg>