<?xml version="1.0" standalone="no"?><!DOCTYPE svg PUBLIC "-//W3C//DTD SVG 1.1//EN" "http://www.w3.org/Graphics/SVG/1.1/DTD/svg11.dtd"><svg t="1595667776807" class="icon" viewBox="0 0 1024 1024" version="1.1" xmlns="http://www.w3.org/2000/svg" p-id="6029" xmlns:xlink="http://www.w3.org/1999/xlink" width="200" height="200"><defs><style type="text/css"></style></defs><path d="M722.944 392.704l40.448 0 0-163.84c0-8.192-1.024-15.872-3.584-23.552-13.824-43.52-62.464-71.68-102.4-87.552-58.88-24.064-128-35.328-190.976-38.4-11.776-0.512-23.552-1.024-35.328-1.024s-23.04 0.512-34.816 1.024c-63.488 3.072-132.608 14.336-191.488 38.4-39.936 16.384-89.088 44.544-102.912 88.064-2.56 7.68-3.584 15.872-3.584 23.552l0 474.624c0 8.192 1.024 16.384 3.584 24.064 13.824 43.52 62.976 71.68 102.912 88.064 58.88 24.064 128 35.328 191.488 37.888 8.192 0.512 15.872 0.512 24.064 0.512L420.352 814.592c-66.048-1.024-139.264-10.24-200.192-35.328-28.672-11.776-81.92-39.424-81.92-75.776l0-162.304 16.384 10.752c64.512 43.008 164.352 60.416 240.64 64 8.192 0.512 16.384 0.512 25.088 1.024l0-39.424c-66.048-1.024-139.264-10.24-200.192-35.328-28.672-11.776-81.92-39.424-81.92-75.776l0-161.792 16.384 10.752c64.512 42.496 164.352 59.904 240.64 64 11.776 0.512 23.552 1.024 35.328 1.024 12.288 0 24.576-0.512 36.352-1.024 76.288-3.584 175.104-20.992 239.616-64l16.384-10.752L722.944 392.704 722.944 392.704zM722.944 228.864c0 36.352-53.248 64-81.92 75.776-64 26.112-141.312 35.328-210.432 35.328s-146.432-9.216-210.432-35.328c-28.672-11.776-81.92-39.424-81.92-75.776 0-36.352 53.248-64 81.92-75.776 64-26.112 141.312-35.328 210.432-35.328s146.432 9.216 210.432 35.328C670.208 164.864 722.944 192.512 722.944 228.864L722.944 228.864zM926.208 843.264l0-306.176c0-31.232-28.16-55.296-53.248-69.12-48.64-26.624-112.64-34.304-167.424-34.304s-119.296 7.68-167.424 34.304c-25.6 13.824-53.248 37.888-53.248 69.12l0 304.64c0 31.232 28.16 55.296 53.248 69.12 48.64 26.624 113.152 34.304 167.424 34.304s118.272-7.68 166.912-33.792C897.024 898.048 925.184 873.984 926.208 843.264L926.208 843.264zM705.024 472.576c43.008 0 91.136 5.632 131.072 21.504 15.36 6.144 49.664 22.528 49.664 42.496s-33.792 36.352-49.664 42.496c-40.448 16.384-88.064 21.504-131.072 21.504s-91.136-5.632-131.072-21.504c-15.36-6.144-49.664-22.528-49.664-42.496s33.792-36.352 49.664-42.496C613.888 478.208 662.016 472.576 705.024 472.576L705.024 472.576zM705.024 906.24c-43.008 0-91.136-5.632-131.072-21.504-15.36-6.144-49.664-22.528-49.664-42.496l0-90.112 15.36 8.192c48.128 25.6 111.616 33.28 165.376 33.28s117.248-7.68 165.376-33.28l15.36-8.192 0 90.112c0 19.968-33.792 36.352-49.664 42.496C796.16 900.608 747.52 906.24 705.024 906.24L705.024 906.24zM705.024 753.664c-43.008 0-91.136-5.632-131.072-21.504-15.36-6.144-49.664-22.528-49.664-42.496L524.288 599.552l15.36 8.192c48.128 25.6 111.104 33.28 165.376 33.28 53.76 0 117.248-7.68 165.376-33.28l15.36-8.192 0 90.112c0 19.968-33.792 36.352-49.664 42.496C796.16 748.032 747.52 753.664 705.024 753.664L705.024 753.664z" p-id="6030"></path><path d="M722.944 228.864c0 36.352-53.248 64-81.92 75.776-64 26.112-141.312 35.328-210.432 35.328s-146.432-9.216-210.432-35.328c-28.672-11.776-81.92-39.424-81.92-75.776 0-36.352 53.248-64 81.92-75.776 64-26.112 141.312-35.328 210.432-35.328s146.432 9.216 210.432 35.328C670.208 164.864 722.944 192.512 722.944 228.864L722.944 228.864z" p-id="6031"></path><path d="M705.024 472.576c43.008 0 91.136 5.632 131.072 21.504 15.36 6.144 49.664 22.528 49.664 42.496s-33.792 36.352-49.664 42.496c-40.448 16.384-88.064 21.504-131.072 21.504s-91.136-5.632-131.072-21.504c-15.36-6.144-49.664-22.528-49.664-42.496s33.792-36.352 49.664-42.496C613.888 478.208 662.016 472.576 705.024 472.576L705.024 472.576z" p-id="6032"></path></svg>