<?xml version="1.0" standalone="no"?><!DOCTYPE svg PUBLIC "-//W3C//DTD SVG 1.1//EN" "http://www.w3.org/Graphics/SVG/1.1/DTD/svg11.dtd"><svg t="1595744093997" class="icon" viewBox="0 0 1024 1024" version="1.1" xmlns="http://www.w3.org/2000/svg" p-id="2360" xmlns:xlink="http://www.w3.org/1999/xlink" width="200" height="200"><defs><style type="text/css"></style></defs><path d="M524.552258 776.91871c97.775484-115.612903 222.637419-290.683871 222.637419-374.585807 0-121.55871-99.757419-220.655484-222.637419-220.655484s-222.637419 99.096774-222.637419 220.655484c0 83.24129 124.861935 258.972903 222.637419 374.585807m0 72.010322S254.348387 550.317419 254.348387 401.672258c0-147.984516 120.898065-268.221935 270.203871-268.221935 149.305806 0 270.203871 120.237419 270.203871 268.221935 0 148.645161-270.203871 447.256774-270.203871 447.256774z" p-id="2361"></path><path d="M671.876129 681.125161c-12.552258-4.624516-19.15871-17.837419-14.534194-30.389677 4.624516-12.552258 17.837419-19.15871 30.389678-14.534194 73.992258 25.765161 122.88 68.707097 122.88 117.594839 0 79.277419-128.165161 143.36-286.059355 143.36s-286.059355-64.082581-286.059355-143.36c0-48.227097 48.227097-91.169032 122.219355-116.934194 12.552258-4.624516 25.765161 1.981935 30.389677 14.534194 4.624516 12.552258-1.981935 25.765161-14.534193 30.389677-62.100645 21.80129-90.508387 52.190968-90.508387 72.010323 0 38.978065 93.150968 95.132903 238.492903 95.132903s238.492903-56.154839 238.492903-95.132903c0-20.48-28.407742-50.869677-91.169032-72.670968" p-id="2362"></path><path d="M413.563871 396.387097h190.926452c13.212903 0 23.783226-10.570323 23.783225-23.783226s-10.570323-23.783226-23.783225-23.783226H413.563871c-13.212903 0-23.783226 10.570323-23.783226 23.783226 0 12.552258 10.570323 23.783226 23.783226 23.783226" p-id="2363"></path><path d="M492.84129 284.738065V475.664516c0 13.212903 10.570323 23.783226 23.783226 23.783226s23.783226-10.570323 23.783226-23.783226V284.738065c0-13.212903-10.570323-23.783226-23.783226-23.783226s-23.783226 10.570323-23.783226 23.783226" p-id="2364"></path></svg>